<svg width="1000" height="1000" viewBox="0 0 1000 1000" fill="none" xmlns="http://www.w3.org/2000/svg">
<path d="M786 404.499L768.4 387.199L751.1 404.499L768.4 422.099L786 404.499Z" fill="#FFBB00"/>
<path d="M770.5 451.499L749.3 494.899L778.1 519.599C765.7 523.999 754.5 525.399 745.9 525.099C731.4 524.599 720.9 513.999 704.8 489.699C691.9 470.099 680.8 460.999 668.1 460.999C653.9 460.999 640.2 474.699 623.4 498.699C611 516.499 601.2 524.799 590.1 524.799C580 524.799 571.8 518.299 571.8 494.099V387.199H569.2L544.4 417.199L548.5 506.299C550.6 549.899 563.7 567.499 587.2 567.499C602.5 567.499 613.6 558.399 620.8 547.799L674.7 579.899L699.7 536.799H701C710.6 559.999 724 567.799 739.2 567.799C750.6 567.799 762.7 565.699 774.6 562.599C784.9 529.299 788.3 512.499 788.3 496.499C788.3 481.799 781.1 464.499 772.8 451.599H770.5V451.499ZM629.4 505.199C634.7 499.299 640.3 496.799 646.3 496.999C661.4 496.999 677.7 515.999 691.1 540.099L629.4 505.199Z" fill="#FFBB00"/>
<path d="M427.8 591.999L410.3 574.199L390.4 593.999L410.3 613.699L427.8 596.099L445.4 613.699L465.3 593.999L445.4 574.199L427.8 591.999Z" fill="#FFBB00"/>
<path d="M231.3 412L248.9 429.6L268.8 409.9L248.9 390L231.3 407.9L213.5 390L193.9 409.9L213.5 429.8L231.3 412Z" fill="#FFBB00"/>
<path d="M525.4 417.701L505.6 397.801L485.9 417.701L505.6 437.601L525.4 417.701Z" fill="#FFBB00"/>
<path d="M446.4 431.601L458.6 416.601L457.8 414.301L318.6 461.301L306.7 476.601L307.2 478.901L446.4 431.601Z" fill="#FFBB00"/>
<path d="M508.1 449.4L487 492.8L515.7 517.3C500.8 522 483.9 524.8 468.4 524.8C444.4 524.8 443.6 515.2 443.6 490.5V479.4H435.9L426.7 512.8C391.6 521.7 356.3 525.1 329.5 525.1C290 525.1 279.4 518.4 279.4 487.7V421.9H276.8L252.8 445.9L253 455.4L243.7 460.3C212.7 476.8 200.3 489 200.3 514C200.3 536.7 214.8 547.6 232.6 547.6C239.3 547.6 245.5 546.6 250.9 544.2L257 526.2C264.9 555.9 287.9 567.7 325.3 567.7C351.4 567.7 385.2 564.1 416.5 556.3L424 533.6H425.8C428.5 556.4 438.9 567 463.5 567.4C481.6 567.7 497.6 565.1 512.6 560.4C522.9 528.4 526.3 512.4 526.3 496.9C526.3 479.6 519.1 462.6 510.8 449.4H508.1ZM232.6 505C221.8 505 215.6 503.2 215.6 499.1C215.6 495.2 219.5 492.9 230.3 488.5L253.5 478.9L254 502.9C254 503.1 254 503.3 254 503.4C247.8 504.4 240 505 232.6 505Z" fill="#FFBB00"/>
<path d="M768.5 429.599L750.9 411.699L731 431.899L750.9 451.499L768.5 434.099L786 451.499L806.1 431.899L786 411.699L768.5 429.599Z" fill="#FFBB00"/>
</svg>
